<?xml version="1.0" encoding="utf-8"?>
<!-- Generator: Adobe Illustrator 21.0.0, SVG Export Plug-In . SVG Version: 6.00 Build 0)  -->
<svg version="1.1" id="Vrstva_1" xmlns="http://www.w3.org/2000/svg" xmlns:xlink="http://www.w3.org/1999/xlink" x="0px" y="0px"
	 viewBox="0 0 160.8 182.7" style="enable-background:new 0 0 160.8 182.7;" xml:space="preserve">
<style type="text/css">
	.st0{fill:#fff;}
	.st1{fill:#fff;}
</style>
<g>
	<path class="st0" d="M98.8,83.7c2.8,0,5-2.2,5-5c0-2.8-2.2-5-5-5c-2.8,0-5,2.2-5,5c0,0.8,0.2,1.5,0.5,2.1l-8.2,8.2L86,89.2h4.7l6-6
		C97.4,83.5,98.1,83.7,98.8,83.7z"/>
	<path class="st0" d="M89,77l0.8-0.8v-5.8h14l0.5,0l0.5,0l0.2-0.2l4.5-4.5c0.6,0.3,1.4,0.5,2.1,0.5c2.8,0,5-2.2,5-5c0-2.8-2.2-5-5-5
		c-2.8,0-5,2.2-5,5c0,0.8,0.2,1.5,0.5,2.1l-3.7,3.7H92.1l5.8-5.8c0.7,0.3,1.4,0.5,2.1,0.5c2.8,0,5-2.2,5-5c0-2.8-2.2-5-5-5
		c-2.8,0-5,2.2-5,5c0,0.8,0.2,1.5,0.5,2.1L87.4,67l-0.8,0.8v6.9l-4.2,4.2V61.2l9.5-9.5l1-1l-0.1-1.4l-0.2-3.6c2-0.6,3.5-2.5,3.5-4.7
		c0-2.8-2.2-5-5-5c-2.8,0-5,2.2-5,5c0,2.1,1.3,3.9,3.2,4.6l0.2,3.7L79.4,59.5L79,59.8V67l-4-4V52.5l3.7-4.8l1-1.3v-9
		c0.4-0.1,0.7-0.2,1-0.4c1.6-0.9,2.5-2.6,2.5-4.3c0-0.8-0.2-1.7-0.7-2.5c-0.9-1.6-2.6-2.5-4.3-2.5c-0.8,0-1.7,0.2-2.5,0.7
		c-1.6,0.9-2.5,2.6-2.5,4.3c0,0.8,0.2,1.7,0.7,2.5c0.6,1,1.5,1.7,2.4,2.1v8L72.7,50l-1,1.4v8.3L67,55v-8.5c2-0.7,3.4-2.5,3.4-4.7
		c0-2.8-2.2-5-5-5c-2.8,0-5,2.2-5,5c0,2.2,1.4,4,3.3,4.7v9.9l0.9,0.9L79,71.7v12.2l-4.7-4.7v-3l0-1.7l-7.2-7.2
		c0.3-0.6,0.5-1.4,0.5-2.1c0-2.8-2.2-5-5-5c-2.8,0-5,2.2-5,5c0,2.8,2.2,5,5,5c0.8,0,1.5-0.2,2.1-0.5l6.2,6.2V77h-8.9l-2.9-2.9
		l-0.5-0.5h-4.4c-0.7-1.9-2.5-3.3-4.7-3.3c-2.8,0-5,2.2-5,5c0,2.8,2.2,5,5,5c2.2,0,4-1.4,4.7-3.3h3l2.6,2.6l0.8,0.8h9.9l8.3,8.3v0.6
		h3.3v-5.6L89,77z"/>
	<path class="st1" d="M160.8,91.3l-6.9-6.9l5.5-5.5L80.4,0L1.5,78.9l5.5,5.5L0,91.3l7,7l-5.5,5.5l78.9,78.9l78.9-78.9l-5.5-5.5
		L160.8,91.3z M80.4,165.8l-27.5-27.5h22.4l8.1,13.7h10.8v0L80.4,165.8z M46.1,131.4l12.5-21.2l12.1,20.3H54l-3.3,5.6L46.1,131.4z
		 M72.9,96.9v10.8h21.2v43.2L63.5,100c-0.5-0.9-1.2-1.7-1.9-2.2c-0.7-0.5-1.6-0.8-2.7-0.8c-1,0-1.9,0.3-2.7,0.8
		c-0.7,0.5-1.4,1.3-1.9,2.2l-14.9,24.8L8,93.4h144.7l-48.8,48.8v-34.5h21.2V96.9H72.9z M80.4,16.9l72.3,72.3h-62H86h-3.7H79H8
		L80.4,16.9z M4.4,78.9L80.4,3l75.9,75.9l-4,4L80.4,10.9L8.4,82.9L4.4,78.9z M156.3,103.8l-75.9,75.9L4.4,103.8l4-4l71.9,71.9
		l1.5-1.5l70.4-70.4L156.3,103.8z"/>
</g>
</svg>
